<?xml version="1.0" encoding="UTF-8" standalone="no"?>
<svg
   width="20"
   height="20"
   viewBox="0 0 20 20"
   fill="none"
   version="1.1"
   id="svg10"
   sodipodi:docname="ico_calender.svg"
   inkscape:version="1.2.1 (9c6d41e410, 2022-07-14, custom)"
   xmlns:inkscape="http://www.inkscape.org/namespaces/inkscape"
   xmlns:sodipodi="http://sodipodi.sourceforge.net/DTD/sodipodi-0.dtd"
   xmlns="http://www.w3.org/2000/svg"
   xmlns:svg="http://www.w3.org/2000/svg">
  <defs
     id="defs14" />
  <sodipodi:namedview
     id="namedview12"
     pagecolor="#ffffff"
     bordercolor="#666666"
     borderopacity="1.0"
     inkscape:showpageshadow="2"
     inkscape:pageopacity="0.0"
     inkscape:pagecheckerboard="0"
     inkscape:deskcolor="#d1d1d1"
     showgrid="false"
     inkscape:zoom="42.85"
     inkscape:cx="8.0280047"
     inkscape:cy="10.011669"
     inkscape:window-width="1920"
     inkscape:window-height="1014"
     inkscape:window-x="0"
     inkscape:window-y="29"
     inkscape:window-maximized="1"
     inkscape:current-layer="svg10" />
  <path
     fill-rule="evenodd"
     clip-rule="evenodd"
     d="M2 7.55151C2 5.89466 3.34315 4.55151 5 4.55151H14.6C16.2569 4.55151 17.6 5.89466 17.6 7.55151V15C17.6 16.6568 16.2569 18 14.6 18H5C3.34315 18 2 16.6568 2 15V7.55151ZM5 5.75151C4.00589 5.75151 3.2 6.5574 3.2 7.55151V15C3.2 15.9941 4.00589 16.8 5 16.8H14.6C15.5941 16.8 16.4 15.9941 16.4 15V7.55151C16.4 6.5574 15.5941 5.75151 14.6 5.75151H5Z"
     fill="#B5B8C4"
     id="path2"
     style="fill:#000000;fill-opacity:1" />
  <path
     fill-rule="evenodd"
     clip-rule="evenodd"
     d="M6.19998 2C6.53135 2 6.79998 2.26863 6.79998 2.6V5.15176C6.79998 5.48313 6.53135 5.75176 6.19998 5.75176C5.8686 5.75176 5.59998 5.48313 5.59998 5.15176V2.6C5.59998 2.26863 5.8686 2 6.19998 2Z"
     fill="#B5B8C4"
     id="path4"
     style="fill:#000000;fill-opacity:1" />
  <path
     fill-rule="evenodd"
     clip-rule="evenodd"
     d="M13.4 2C13.7314 2 14 2.26863 14 2.6V5.15176C14 5.48313 13.7314 5.75176 13.4 5.75176C13.0687 5.75176 12.8 5.48313 12.8 5.15176V2.6C12.8 2.26863 13.0687 2 13.4 2Z"
     fill="#B5B8C4"
     id="path6"
     style="fill:#000000;fill-opacity:1" />
  <path
     fill-rule="evenodd"
     clip-rule="evenodd"
     d="M2 8.21377C2 7.8824 2.26863 7.61377 2.6 7.61377H17C17.3314 7.61377 17.6 7.8824 17.6 8.21377C17.6 8.54514 17.3314 8.81377 17 8.81377H2.6C2.26863 8.81377 2 8.54514 2 8.21377Z"
     fill="#B5B8C4"
     id="path8"
     style="fill:#000000;fill-opacity:1" />
</svg>
