<?xml version="1.0" encoding="UTF-8" standalone="no"?>
<svg
   width="16"
   height="16"
   viewBox="0 0 16 16"
   fill="none"
   version="1.1"
   id="svg4"
   sodipodi:docname="navIcon-tickets.svg"
   inkscape:version="1.2.1 (9c6d41e410, 2022-07-14)"
   xmlns:inkscape="http://www.inkscape.org/namespaces/inkscape"
   xmlns:sodipodi="http://sodipodi.sourceforge.net/DTD/sodipodi-0.dtd"
   xmlns="http://www.w3.org/2000/svg"
   xmlns:svg="http://www.w3.org/2000/svg">
  <defs
     id="defs8" />
  <sodipodi:namedview
     id="namedview6"
     pagecolor="#ffffff"
     bordercolor="#666666"
     borderopacity="1.0"
     inkscape:showpageshadow="2"
     inkscape:pageopacity="0.0"
     inkscape:pagecheckerboard="0"
     inkscape:deskcolor="#d1d1d1"
     showgrid="false"
     inkscape:zoom="53.5625"
     inkscape:cx="8"
     inkscape:cy="7.9906651"
     inkscape:window-width="1920"
     inkscape:window-height="1014"
     inkscape:window-x="0"
     inkscape:window-y="29"
     inkscape:window-maximized="1"
     inkscape:current-layer="svg4" />
  <path
     opacity="0.4"
     d="M3.55556 5.33334H12.4444V10.6667H3.55556V5.33334ZM14.6667 8C14.6667 8.73639 15.2636 9.33334 16 9.33334V12C16 12.7364 15.4031 13.3333 14.6667 13.3333H1.33333C0.596944 13.3333 0 12.7364 0 12V9.33334C0.736389 9.33334 1.33333 8.73639 1.33333 8C1.33333 7.26362 0.736389 6.66667 0 6.66667V4.00001C0 3.26362 0.596944 2.66667 1.33333 2.66667H14.6667C15.4031 2.66667 16 3.26362 16 4.00001V6.66667C15.2636 6.66667 14.6667 7.26362 14.6667 8ZM13.3333 5.11112C13.3333 4.74292 13.0349 4.44445 12.6667 4.44445H3.33333C2.96514 4.44445 2.66667 4.74292 2.66667 5.11112V10.8889C2.66667 11.2571 2.96514 11.5556 3.33333 11.5556H12.6667C13.0349 11.5556 13.3333 11.2571 13.3333 10.8889V5.11112Z"
     fill="#9FA2B4"
     id="path2"
     style="opacity:1;fill:#000000;fill-opacity:1" />
</svg>
