<?xml version="1.0" encoding="UTF-8" standalone="no"?>
<svg
   width="16"
   height="16"
   viewBox="0 0 16 16"
   fill="none"
   version="1.1"
   id="svg11"
   sodipodi:docname="navIcon-overview.svg"
   inkscape:version="1.2.1 (9c6d41e410, 2022-07-14)"
   xmlns:inkscape="http://www.inkscape.org/namespaces/inkscape"
   xmlns:sodipodi="http://sodipodi.sourceforge.net/DTD/sodipodi-0.dtd"
   xmlns="http://www.w3.org/2000/svg"
   xmlns:svg="http://www.w3.org/2000/svg">
  <sodipodi:namedview
     id="namedview13"
     pagecolor="#ffffff"
     bordercolor="#666666"
     borderopacity="1.0"
     inkscape:showpageshadow="2"
     inkscape:pageopacity="0.0"
     inkscape:pagecheckerboard="0"
     inkscape:deskcolor="#d1d1d1"
     showgrid="false"
     inkscape:zoom="53.5625"
     inkscape:cx="8"
     inkscape:cy="7.9906651"
     inkscape:window-width="1920"
     inkscape:window-height="1014"
     inkscape:window-x="0"
     inkscape:window-y="29"
     inkscape:window-maximized="1"
     inkscape:current-layer="g4" />
  <g
     clip-path="url(#clip0_584_253)"
     id="g4">
    <path
       d="M15.5232 8.94116H8.54412L13.1921 13.5891C13.3697 13.7667 13.6621 13.7812 13.8447 13.6091C14.9829 12.5367 15.7659 11.0912 15.9956 9.46616C16.035 9.18793 15.8041 8.94116 15.5232 8.94116ZM15.0576 7.03528C14.8153 3.52176 12.0076 0.714119 8.49412 0.471767C8.22589 0.453237 8 0.679413 8 0.948236V7.5294H14.5815C14.8503 7.5294 15.0762 7.30352 15.0576 7.03528ZM6.58824 8.94116V1.96206C6.58824 1.68118 6.34147 1.45029 6.06353 1.48971C2.55853 1.985 -0.120585 5.04705 0.00412089 8.71675C0.132356 12.4856 3.37736 15.5761 7.14794 15.5288C8.6303 15.5103 10 15.0326 11.1262 14.2338C11.3585 14.0691 11.3738 13.727 11.1724 13.5256L6.58824 8.94116Z"
       fill="#DDE2FF"
       id="path2"
       style="fill:#000000;fill-opacity:1" />
  </g>
  <defs
     id="defs9">
    <clipPath
       id="clip0_584_253">
      <rect
         width="16"
         height="16"
         fill="white"
         id="rect6" />
    </clipPath>
  </defs>
</svg>
